<?xml version="1.0" encoding="utf-8"?>
<!-- Generator: Adobe Illustrator 25.1.0, SVG Export Plug-In . SVG Version: 6.00 Build 0)  -->
<!DOCTYPE svg PUBLIC "-//W3C//DTD SVG 1.1//EN" "http://www.w3.org/Graphics/SVG/1.1/DTD/svg11.dtd" [
	<!ENTITY ns_extend "http://ns.adobe.com/Extensibility/1.0/">
	<!ENTITY ns_ai "http://ns.adobe.com/AdobeIllustrator/10.0/">
	<!ENTITY ns_graphs "http://ns.adobe.com/Graphs/1.0/">
	<!ENTITY ns_vars "http://ns.adobe.com/Variables/1.0/">
	<!ENTITY ns_imrep "http://ns.adobe.com/ImageReplacement/1.0/">
	<!ENTITY ns_sfw "http://ns.adobe.com/SaveForWeb/1.0/">
	<!ENTITY ns_custom "http://ns.adobe.com/GenericCustomNamespace/1.0/">
	<!ENTITY ns_adobe_xpath "http://ns.adobe.com/XPath/1.0/">
]>
<svg version="1.1" id="visual" xmlns:x="&ns_extend;" xmlns:i="&ns_ai;" xmlns:graph="&ns_graphs;"
	 xmlns="http://www.w3.org/2000/svg" xmlns:xlink="http://www.w3.org/1999/xlink" x="0px" y="0px" viewBox="0 0 900 45"
	 style="enable-background:new 0 0 900 45;" xml:space="preserve" preserveAspectRatio="none">
<style type="text/css">
	.st0{fill: rgba(21, 33, 61, .7);}
	.st1{fill:#FCA311;}
</style>
<metadata>
	<sfw  xmlns="&ns_sfw;">
		<slices></slices>
		<sliceSourceBounds  bottomLeftOrigin="true" height="46" width="900" x="0" y="-1"></sliceSourceBounds>
	</sfw>
</metadata>
<path class="st0" d="M0,0l37.5,6.2C75,12.3,150,24.7,225,29.5s150,2.2,225,0.8c75-1.3,150-1.3,225-6.1c75-4.9,150-14.5,187.5-19.4
	L900,0v46h-37.5C825,46,750,46,675,46s-150,0-225,0s-150,0-225,0S75,46,37.5,46H0V0z"/>
<path class="st1" d="M0,36l37.5-3.3C75,29.3,150,22.7,225,20s150-1.3,225,2s150,8.7,225,8.8c75,0.2,150-4.8,187.5-7.3L900,21v25
	h-37.5C825,46,750,46,675,46s-150,0-225,0s-150,0-225,0S75,46,37.5,46H0V36z"/>
</svg>
