<?xml version="1.0" encoding="utf-8"?>
<!-- Generator: Adobe Illustrator 25.1.0, SVG Export Plug-In . SVG Version: 6.00 Build 0)  -->
<!DOCTYPE svg PUBLIC "-//W3C//DTD SVG 1.1//EN" "http://www.w3.org/Graphics/SVG/1.1/DTD/svg11.dtd" [
	<!ENTITY ns_extend "http://ns.adobe.com/Extensibility/1.0/">
	<!ENTITY ns_ai "http://ns.adobe.com/AdobeIllustrator/10.0/">
	<!ENTITY ns_graphs "http://ns.adobe.com/Graphs/1.0/">
	<!ENTITY ns_vars "http://ns.adobe.com/Variables/1.0/">
	<!ENTITY ns_imrep "http://ns.adobe.com/ImageReplacement/1.0/">
	<!ENTITY ns_sfw "http://ns.adobe.com/SaveForWeb/1.0/">
	<!ENTITY ns_custom "http://ns.adobe.com/GenericCustomNamespace/1.0/">
	<!ENTITY ns_adobe_xpath "http://ns.adobe.com/XPath/1.0/">
]>
<svg version="1.1" id="visual" xmlns:x="&ns_extend;" xmlns:i="&ns_ai;" xmlns:graph="&ns_graphs;"
	 xmlns="http://www.w3.org/2000/svg" xmlns:xlink="http://www.w3.org/1999/xlink" x="0px" y="0px" viewBox="0 0 960 39.3"
   preserveAspectRatio="none"
	 style="enable-background:new 0 0 960 39.3;" xml:space="preserve">
<style type="text/css">
	.st0{fill:rgba(252,163,17,.5);}
	.st1{fill:#14213D;}
</style>
<metadata>
	<sfw  xmlns="&ns_sfw;">
		<slices></slices>
		<sliceSourceBounds  bottomLeftOrigin="true" height="40.3" width="960" x="0" y="-1"></sliceSourceBounds>
	</sfw>
</metadata>
<path class="st0" d="M0,14.3L40,16c40,1.6,120,5,200,3.3S400,11,480,6.1c80-4.8,160-7.8,240-5C800,4,880,12.6,920,17l40,4.3v19h-40
	c-40,0-120,0-200,0s-160,0-240,0s-160,0-240,0s-160,0-200,0H0V14.3z"/>
<path class="st1" d="M0,10.3l40,3.2C80,16.6,160,23,240,26s160,2.6,240,2.1s160-1.1,240-3.3s160-5.8,200-7.7l40-1.8v25h-40
	c-40,0-120,0-200,0s-160,0-240,0s-160,0-240,0s-160,0-200,0H0V10.3z"/>
</svg>
