<?xml version="1.0" encoding="utf-8"?>
<!-- Generator: Adobe Illustrator 25.1.0, SVG Export Plug-In . SVG Version: 6.00 Build 0)  -->
<!DOCTYPE svg PUBLIC "-//W3C//DTD SVG 1.1//EN" "http://www.w3.org/Graphics/SVG/1.1/DTD/svg11.dtd" [
	<!ENTITY ns_extend "http://ns.adobe.com/Extensibility/1.0/">
	<!ENTITY ns_ai "http://ns.adobe.com/AdobeIllustrator/10.0/">
	<!ENTITY ns_graphs "http://ns.adobe.com/Graphs/1.0/">
	<!ENTITY ns_vars "http://ns.adobe.com/Variables/1.0/">
	<!ENTITY ns_imrep "http://ns.adobe.com/ImageReplacement/1.0/">
	<!ENTITY ns_sfw "http://ns.adobe.com/SaveForWeb/1.0/">
	<!ENTITY ns_custom "http://ns.adobe.com/GenericCustomNamespace/1.0/">
	<!ENTITY ns_adobe_xpath "http://ns.adobe.com/XPath/1.0/">
]>
<svg version="1.1" id="visual" xmlns:x="&ns_extend;" xmlns:i="&ns_ai;" xmlns:graph="&ns_graphs;"
	 xmlns="http://www.w3.org/2000/svg" xmlns:xlink="http://www.w3.org/1999/xlink" x="0px" y="0px" viewBox="0 0 900 57" preserveAspectRatio="none"
	 style="enable-background:new 0 0 900 57;" xml:space="preserve">
<style type="text/css">
	.st0{fill:rgba(88, 121, 198, .5);}
	.st1{fill:#15213D;}
</style>
<metadata>
	<sfw  xmlns="&ns_sfw;">
		<slices></slices>
		<sliceSourceBounds  bottomLeftOrigin="true" height="58" width="900" x="0" y="-1"></sliceSourceBounds>
	</sfw>
</metadata>
<path class="st0" d="M0,42l30-3.3c30-3.4,90-10,150-9.7s120,7.7,180,9.7s120-1.4,180-7.2s120-14.2,180-19.8C780,6,840,3,870,1.5
	L900,0v58h-30c-30,0-90,0-150,0s-120,0-180,0s-120,0-180,0s-120,0-180,0S60,58,30,58H0V42z"/>
<path class="st1" d="M0,19l30,5.3c30,5.4,90,16,150,18.5s120-3.1,180-7.5c60-4.3,120-7.3,180-5.8S660,37,720,39s120,0,150-1l30-1v21
	h-30c-30,0-90,0-150,0s-120,0-180,0s-120,0-180,0s-120,0-180,0S60,58,30,58H0V19z"/>
</svg>
